<svg xmlns="http://www.w3.org/2000/svg" viewBox="0 0 209.29 150.13"><defs><style>.cls-1{fill:#44523e;}</style></defs><g id="Calque_2" data-name="Calque 2"><g id="Calque_1-2" data-name="Calque 1"><path class="cls-1" d="M3.34,146.71v2.86H0v-.4H.76a2.34,2.34,0,0,0,1.73-.73,2.34,2.34,0,0,0,.73-1.73ZM3.18,120.8l4.46,4.87,0,23.9H3.22V125.83a34,34,0,0,0-.44-5Zm0,0,24.9,24.63.44,4.7L3.62,125.55Zm4.5,25.91a2.37,2.37,0,0,0,.73,1.73,2.34,2.34,0,0,0,1.73.73h.76v.4H7.56v-2.86Zm13.12-25.3h3.34v2.85h-.08a2.59,2.59,0,0,0-.74-1.75,2.38,2.38,0,0,0-1.75-.7H20.8Zm7.64,0V145a25.63,25.63,0,0,0,.13,2.62c.08.78.18,1.62.32,2.53h-.37l-4.46-5V121.41Zm3.22,0v.4h-.72a2.39,2.39,0,0,0-1.73.7,2.53,2.53,0,0,0-.77,1.75h-.12v-2.85Z"/><path class="cls-1" d="M37.18,128H37.1a2.15,2.15,0,0,0-.69-1.53,2.18,2.18,0,0,0-1.57-.61h-.52v-.4h3.14Zm0,19.07.28,2.53H34.32v-.4h.52A2.26,2.26,0,0,0,37.1,147Zm4.62-21.61v24.14H37.1V125.43Zm10.18,0v1.49H41.72v-1.49Zm-1.85,11.39v1.49H41.72v-1.49Zm1.57,11.26.6,1.49H41.72v-1.49Zm2.45-5.35-1.77,6.84H45.71L47,148.08a6.93,6.93,0,0,0,3.16-.66,6.15,6.15,0,0,0,2.19-1.87,10.7,10.7,0,0,0,1.45-2.82Zm-4-8.93v3.1h-3v-.08a2.45,2.45,0,0,0,1.93-.77,2.72,2.72,0,0,0,.69-1.89v-.36Zm0,4.42v3.14h-.4V141a2.72,2.72,0,0,0-.69-1.89,2.54,2.54,0,0,0-1.93-.8v-.09ZM52,124.79v1l-4.34-.4a15,15,0,0,0,2.49-.22A11.48,11.48,0,0,0,52,124.79Zm0,2v3.78h-.44v-.44a3.33,3.33,0,0,0-.81-2.34,2.93,2.93,0,0,0-2.29-.88v-.12Z"/><path class="cls-1" d="M63.09,128.09l-5.19,0a3.51,3.51,0,0,0-1.25-1.69,3.19,3.19,0,0,0-1.93-.61H54.4v-.4H64.69v.4h-.32a1.54,1.54,0,0,0-1.16.55Q62.69,126.92,63.09,128.09ZM57,125.67H62.2L68,141.85,66.34,150Zm17.5-.84.57,3.58-7.41,17.42q-.43,1.29-.66,2.25a9.94,9.94,0,0,0-.26,1.93h-.37l-1-4.14,8.73-21Zm0,0L82.28,142l-1.53,8-8.53-18.54Zm14,.8-6.64,20.16c-.26.88-.46,1.65-.58,2.29a8.19,8.19,0,0,0-.14,1.89h-.36l-.93-3.74L86,125.67Zm-3.26,2.42a1.74,1.74,0,0,0-.1-1.71,1.43,1.43,0,0,0-1.14-.55h-.33v-.4h7.49v.4h-.28a3.3,3.3,0,0,0-1.93.61,3.12,3.12,0,0,0-1.25,1.69Z"/><path class="cls-1" d="M105.73,124.34h-.12a2.65,2.65,0,0,0-.78-1.79,2.48,2.48,0,0,0-1.79-.74h-.53v-.4h3.22Zm0,22.29v2.94h-3.22v-.4H103a2.45,2.45,0,0,0,1.79-.75,2.61,2.61,0,0,0,.78-1.79Zm4.79-25.22v28.16h-4.91V121.41ZM125,134.8v1.53H110.12V134.8ZM110.4,124.34v-2.93h3.22v.4h-.53a2.48,2.48,0,0,0-1.79.74,2.65,2.65,0,0,0-.78,1.79Zm0,22.29h.12a2.61,2.61,0,0,0,.78,1.79,2.45,2.45,0,0,0,1.79.75h.53v.4H110.4Zm14.4-22.29h-.12a2.42,2.42,0,0,0-.76-1.79,2.54,2.54,0,0,0-1.81-.74h-.53v-.4h3.22Zm0,22.29v2.94h-3.22v-.4h.53a2.51,2.51,0,0,0,1.81-.75,2.39,2.39,0,0,0,.76-1.79Zm4.79-25.22v28.16h-4.91V121.41Zm-.12,2.93v-2.93h3.22v.4h-.53a2.44,2.44,0,0,0-1.78.74,2.61,2.61,0,0,0-.79,1.79Zm0,22.29h.12a2.58,2.58,0,0,0,.79,1.79,2.41,2.41,0,0,0,1.78.75h.53v.4h-3.22Z"/><path class="cls-1" d="M138.8,128h-.12a1.9,1.9,0,0,0-.72-1.53,2.58,2.58,0,0,0-1.73-.61h-.52v-.4h3.09Zm0,19.07v2.53h-3.09v-.4h.52a2.54,2.54,0,0,0,1.73-.63,1.9,1.9,0,0,0,.72-1.5Zm4.59-21.61v24.14h-4.71V125.43Zm-.12,2.54v-2.54h3.1l0,.4h-.44a2.58,2.58,0,0,0-1.76.61,2.08,2.08,0,0,0-.74,1.53Zm0,19.07h.12a2.09,2.09,0,0,0,.74,1.5,2.55,2.55,0,0,0,1.76.63h.48v.4h-3.1Z"/><path class="cls-1" d="M152.36,128h-.08a2.12,2.12,0,0,0-.7-1.53,2.28,2.28,0,0,0-1.59-.61h-.48v-.4h2.85Zm0,19.07.28,2.53h-3.13v-.4H150a2.24,2.24,0,0,0,2.25-2.13ZM157,125.43v24.14h-4.71V125.43Zm-.12,2.54v-2.54h2.85v.4h-.44a2.32,2.32,0,0,0-1.63.61A2,2,0,0,0,157,128Zm10,20.11.64,1.49H156.91v-1.49Zm2.53-5.35-1.81,6.84h-6.68l1.29-1.49a7,7,0,0,0,3.16-.66,6.15,6.15,0,0,0,2.19-1.87,11,11,0,0,0,1.45-2.82Z"/><path class="cls-1" d="M173.73,128h-.08a2.13,2.13,0,0,0-.71-1.53,2.25,2.25,0,0,0-1.59-.61h-.48v-.4h2.86Zm0,19.07.28,2.53h-3.14v-.4h.52a2.26,2.26,0,0,0,2.26-2.13Zm4.62-21.61v24.14h-4.7V125.43Zm-.12,2.54v-2.54h2.86v.4h-.44a2.29,2.29,0,0,0-1.63.61,2,2,0,0,0-.67,1.53Zm10,20.11.64,1.49H178.27v-1.49Zm2.53-5.35-1.8,6.84h-6.68l1.28-1.49a6.93,6.93,0,0,0,3.16-.66,6.15,6.15,0,0,0,2.19-1.87,10.7,10.7,0,0,0,1.45-2.82Z"/><path class="cls-1" d="M200.68,124.91q.93,0,1.95.06c.69,0,1.35.1,2,.18s1.21.17,1.7.26a5.44,5.44,0,0,1,1,.26l-.32,4.59h-.36a3.5,3.5,0,0,0-1.25-2.82,5.55,5.55,0,0,0-3.66-1,5.29,5.29,0,0,0-3.22.94,3,3,0,0,0-1.33,2.39,2.85,2.85,0,0,0,.26,1.23,3.55,3.55,0,0,0,.79,1,7.5,7.5,0,0,0,1.25.92l6.92,4.71a5.64,5.64,0,0,1,2.13,2.23,6.44,6.44,0,0,1,.72,3.24,6.69,6.69,0,0,1-1.19,3.68,7.19,7.19,0,0,1-3,2.46,11,11,0,0,1-4.47.86,18.25,18.25,0,0,1-3-.24,11,11,0,0,1-2.53-.7,6,6,0,0,1-1.77-1.11,5,5,0,0,1-.2-1.77,9.94,9.94,0,0,1,.3-2.13,9.29,9.29,0,0,1,.62-1.85h.41a6.08,6.08,0,0,0,.62,3.26,5.43,5.43,0,0,0,2.21,2.27,7,7,0,0,0,3.48.83,5.44,5.44,0,0,0,3.62-1.15,3.55,3.55,0,0,0,1.25-2.76,3.23,3.23,0,0,0-.58-1.89,5.88,5.88,0,0,0-1.91-1.61l-6.48-4.5a5.86,5.86,0,0,1-2.46-2.56,6.34,6.34,0,0,1,3-8.53A8.12,8.12,0,0,1,200.68,124.91Zm6.72.36,0,.68h-3.82v-.68Z"/><path class="cls-1" d="M75.22,87.22c-.29.21-.59.62-.89.62-6.47,0-12.95,0-19.42,0-.73,0-1-.29-.65-1.1a18.23,18.23,0,0,0,2.45,0,6.19,6.19,0,0,0,5.49-6.43c0-16.39,0-32.78,0-49.17,0-5.25-.37-10.5-.58-16a5.85,5.85,0,0,1,1.5.75q11.4,10.49,22.76,21l28,25.88c1.17,1.07,2.33,2.15,3.69,3.41,0-.54.06-.88.06-1.23q0-12.26,0-24.52c0-4.05-2.19-6.45-6.21-6.76-.49,0-1,0-1.47,0-.19,0-.34-.3-.51-.45.18-.19.32-.47.54-.53a3.39,3.39,0,0,1,1,0q9.15,0,18.28,0c.4,0,1.15-.35,1.07.5,0,.2-.72.48-1.11.49-2.62,0-4.8.87-6.06,3.26a7,7,0,0,0-.82,3.13q0,16.13.08,32.24c0,2.79.43,5.57.67,8.42-.68.46-1.11-.08-1.58-.51L107.83,67.6,74.12,36.51,66.9,29.83v1.56l0,48.37c0,4.54,2.5,7,7,7h1Z"/><path class="cls-1" d="M155.06,86.8c.37,1.12-.32,1.06-1,1.06H135a5.59,5.59,0,0,1-1.36,0c-.33-.08-.6-.41-.89-.63l.19-.35c.67,0,1.35,0,2-.1a6.46,6.46,0,0,0,5.78-6.62c0-7.6,0-15.21,0-22.82v-3H124.87V51.18h15.87V24.89c0-4.3-2.52-6.9-6.85-7.13-.34,0-.67-.33-1-.51.35-.16.71-.46,1.06-.46q10.11,0,20.22,0c.33,0,.66.34,1,.52a3,3,0,0,1-.95.46c-4.31.25-6.85,2.84-6.85,7.14q0,22.81,0,45.65,0,4.53,0,9.08c0,4.34,2.72,7.1,7.05,7.16C154.62,86.81,154.84,86.8,155.06,86.8Z"/><path class="cls-1" d="M107,104.48H84.85c-.36-1,.35-1,1-1a6,6,0,0,0,5.81-3.27,9.56,9.56,0,0,0,.94-4.12c.07-10.86,0-21.73,0-32.6V56.88a50.48,50.48,0,0,0,4,3.55c2.16,1.56,2.78,3.49,2.73,6.16-.18,10-.07,20.07-.07,30.1a6.62,6.62,0,0,0,6.69,6.8C106.49,103.51,107.3,103.31,107,104.48Z"/><path class="cls-1" d="M99.2,45.94C97,43.89,95,42.07,93,40.18a2,2,0,0,1-.38-1.32c0-9.72,0-19.45,0-29.18a22.22,22.22,0,0,0-.15-3.16,6.33,6.33,0,0,0-6.21-5.4,2.3,2.3,0,0,1-.79,0,3.05,3.05,0,0,1-.7-.51A4.74,4.74,0,0,1,85.38,0c.15-.08.37,0,.56,0h19.64a3.84,3.84,0,0,1,1,.05.69.69,0,0,1,.41.51.71.71,0,0,1-.42.51,2.56,2.56,0,0,1-.79,0,6.51,6.51,0,0,0-6.59,6.75q0,17.21,0,34.4Z"/><path class="cls-1" d="M104.89,51.2h10.22v3.08c-2.22,0-4.4,0-6.58,0a1.18,1.18,0,0,1-.68-.33C106.92,53.1,106,52.25,104.89,51.2Z"/></g></g></svg>